<?xml version="1.0" encoding="UTF-8"?>
<svg version="1.1" xmlns="http://www.w3.org/2000/svg" width="1120" height="182">
<path d="M0 0 C0.76868408 0.15154541 1.53736816 0.30309082 2.3293457 0.45922852 C22.44740564 4.74081028 43.87408718 12.25391614 60.3984375 24.796875 C62.91464831 26.61019445 62.91464831 26.61019445 65.4609375 25.8515625 C66.31945312 25.34367187 67.17796875 24.83578125 68.0625 24.3125 C68.61583008 23.98604492 69.16916016 23.65958984 69.73925781 23.32324219 C71.02570032 22.55488455 72.30554569 21.77541143 73.57983398 20.98706055 C88.05795174 12.06003392 103.4210727 5.68883692 119.98730469 1.80859375 C121.97407834 1.33363798 123.94486069 0.79322809 125.9140625 0.25 C130.95573719 -0.89234023 134.37282128 -1.5764563 139.0546875 0.88671875 C141.95930988 3.19191075 144.49583955 5.63839795 147.0625 8.3125 C148.23232422 9.3953125 148.23232422 9.3953125 149.42578125 10.5 C155.43237343 16.14349939 160.40501479 22.52996834 165.0625 29.3125 C165.0625 29.6425 165.0625 29.9725 165.0625 30.3125 C164.4547876 30.32708252 163.8470752 30.34166504 163.22094727 30.35668945 C140.79906314 30.95435294 120.91939399 34.06006456 100.25 42.9375 C99.57380615 43.22657227 98.8976123 43.51564453 98.20092773 43.81347656 C94.91099192 45.28016068 92.50437627 46.68462413 90.0625 49.3125 C90.85914063 50.2303125 91.65578125 51.148125 92.4765625 52.09375 C108.0625 70.11529714 108.0625 70.11529714 108.0625 73.3125 C109.02027344 72.92578125 109.97804687 72.5390625 110.96484375 72.140625 C126.08001113 66.15918073 139.37422613 62.97290261 155.75 62.875 C156.94906982 62.86484863 158.14813965 62.85469727 159.38354492 62.84423828 C167.98057674 62.92782462 175.73307633 64.22676718 184.0625 66.3125 C184.88384989 68.80988858 185.69465748 71.30994805 186.5 73.8125 C186.84514648 74.85664063 186.84514648 74.85664063 187.19726562 75.921875 C188.73299584 80.72937828 189.5702359 85.28801131 190.0625 90.3125 C186.28088018 89.63944106 182.76541651 88.59153263 179.125 87.375 C156.08816331 80.20856325 132.77384393 82.95179837 111.4375 93.9375 C89.52953291 105.77902831 74.9123499 126.04330209 67.0625 149.3125 C66.61777344 150.61960938 66.61777344 150.61960938 66.1640625 151.953125 C65.81901576 154.46341553 65.81901576 154.46341553 67.6796875 156.6640625 C68.79730469 157.78941406 68.79730469 157.78941406 69.9375 158.9375 C73.97975352 163.06426056 73.97975352 163.06426056 75.0625 166.3125 C74.59199219 166.75980469 74.12148437 167.20710937 73.63671875 167.66796875 C70.21173351 170.99367905 67.27378342 174.02000866 65.0625 178.3125 C61.33437986 177.06979329 60.34468936 175.50200306 57.9375 172.4375 C57.23367187 171.55320313 56.52984375 170.66890625 55.8046875 169.7578125 C54.0625 167.3125 54.0625 167.3125 53.0625 164.3125 C54.42578125 162.375 54.42578125 162.375 56.375 160.3125 C58.52075516 158.01440928 60.30921907 155.9424214 62.0625 153.3125 C61.43107219 150.76522782 60.71244714 148.54743296 59.75 146.125 C59.47438232 145.41883545 59.19876465 144.7126709 58.91479492 143.98510742 C48.95166222 119.35152788 32.4870861 100.80115295 7.96582031 90.10107422 C-12.94555414 81.43717742 -35.87032111 80.87761337 -56.8359375 89.54296875 C-58.9375 90.3125 -58.9375 90.3125 -61.9375 90.3125 C-61.39752603 82.4828775 -60.34247582 74.44806408 -56.9375 67.3125 C-54.05593914 65.17050324 -51.45712687 64.69407767 -47.9375 64.3125 C-47.02307129 64.1470166 -46.10864258 63.9815332 -45.16650391 63.81103516 C-23.19493603 60.4187819 -1.77783346 63.74320733 18.0625 73.3125 C18.60777344 72.64605469 19.15304688 71.97960937 19.71484375 71.29296875 C20.46894531 70.37128906 21.22304687 69.44960937 22 68.5 C22.8146875 67.50355469 23.629375 66.50710937 24.46875 65.48046875 C26.17340286 63.39664651 27.88244549 61.31667114 29.59375 59.23828125 C30.3878125 58.27277344 31.181875 57.30726562 32 56.3125 C32.73089844 55.425625 33.46179688 54.53875 34.21484375 53.625 C36.16395442 51.25349979 36.16395442 51.25349979 38.0625 48.3125 C13.33975397 35.72739173 -9.32683712 31.18296304 -36.9375 30.3125 C-33.13015526 22.4635756 -26.9643656 16.15249757 -20.875 10 C-20.39305176 9.50886719 -19.91110352 9.01773437 -19.41455078 8.51171875 C-17.9574114 7.06684898 -16.46730901 5.68010423 -14.9375 4.3125 C-14.39295166 3.82064209 -13.84840332 3.32878418 -13.28735352 2.82202148 C-8.86256178 -0.78983612 -5.58786695 -1.22244533 0 0 Z M58.5625 71.5 C52.81382639 77.34085351 47.916817 83.72302288 43.0625 90.3125 C46.08346617 93.92292298 49.08722746 97.38209397 52.5 100.625 C56.68180053 104.71345677 59.84496602 109.45196994 63.0625 114.3125 C66.8194956 110.66440283 70.22355266 106.84355408 73.5625 102.8125 C76.90144734 98.78144592 80.3055044 94.96059717 84.0625 91.3125 C82.52183175 86.12024792 79.21703104 82.70323025 75.6875 78.75 C75.11 78.09064453 74.5325 77.43128906 73.9375 76.75195312 C69.68134776 71.85482796 69.68134776 71.85482796 65.0625 67.3125 C61.9037368 67.3125 60.75708499 69.31583234 58.5625 71.5 Z " fill="#AE8C67" transform="translate(61.9375,2.6875)"/>
<path d="M0 0 C-0.24230347 1.59122681 -0.24230347 1.59122681 -0.48950195 3.21459961 C-1.20672848 8.98902843 -1.16229505 14.75512955 -1.16796875 20.56640625 C-1.17129715 21.75926743 -1.17462555 22.9521286 -1.17805481 24.18113708 C-1.18309934 26.69326392 -1.1854639 29.2053974 -1.18530273 31.7175293 C-1.18749476 35.5533346 -1.20569225 39.38885465 -1.22460938 43.22460938 C-1.22754272 45.67187402 -1.22952791 48.11914003 -1.23046875 50.56640625 C-1.23765427 51.70823868 -1.24483978 52.85007111 -1.25224304 54.02650452 C-1.2359846 59.70623655 -1.11799155 64.68802692 1 70 C3.83029148 71.41514574 6.28379133 71.20780992 9.4375 71.25 C11.16806641 71.28867188 11.16806641 71.28867188 12.93359375 71.328125 C15.95974079 71.25964734 15.95974079 71.25964734 17.84765625 69.671875 C22.61647462 62.75304699 19.83555506 51.87904051 18.4375 44.23828125 C18.293125 43.49964844 18.14875 42.76101562 18 42 C20.12282669 40.99539469 22.24833021 39.99644398 24.375 39 C25.55835938 38.443125 26.74171875 37.88625 27.9609375 37.3125 C31 36 31 36 33 36 C32.97905273 36.85231201 32.95810547 37.70462402 32.93652344 38.58276367 C32.86814756 41.76029433 32.81810262 44.93744871 32.78027344 48.11547852 C32.7602201 49.48800023 32.73296972 50.86043717 32.69824219 52.23266602 C32.64945448 54.21072044 32.62911124 56.18941119 32.609375 58.16796875 C32.58842773 59.35672607 32.56748047 60.5454834 32.54589844 61.77026367 C33.09203769 65.65460573 34.23280343 67.26809612 37 70 C40.61867559 71.2062252 43.92506251 71.10816918 47.6875 71.0625 C48.38939453 71.05798828 49.09128906 71.05347656 49.81445312 71.04882812 C51.54300538 71.03706927 53.27151365 71.01913454 55 71 C54.236875 70.154375 53.47375 69.30875 52.6875 68.4375 C48.59987527 63.4789325 46.42785324 58.43151634 46.71484375 51.98046875 C47.57765662 45.98805611 50.34484722 41.72412222 55 38 C62.75998648 33.83259985 72.31284957 33.52054548 80.79296875 35.7265625 C86.2399629 37.97105255 90.3035002 41.09171463 93.3125 46.25 C95.19772706 53.79090823 93.99524115 59.00900323 90.38671875 65.8359375 C89.08946184 67.86038914 87.77276395 69.38839641 86 71 C88.58445773 71.1081866 91.16437352 71.18737237 93.75 71.25 C94.47960937 71.28351563 95.20921875 71.31703125 95.9609375 71.3515625 C99.28868547 71.41206701 101.59460313 71.23537127 104.49609375 69.55078125 C106.75072679 65.72668936 106.46806685 62.28991489 106.3125 57.9375 C106.30283203 57.12216797 106.29316406 56.30683594 106.28320312 55.46679688 C106.21778607 52.00538115 106.10414863 49.3124459 105 46 C107.31131066 44.83092416 109.62395623 43.66464108 111.9375 42.5 C112.9265332 41.99919922 112.9265332 41.99919922 113.93554688 41.48828125 C118.88671875 39 118.88671875 39 120 39 C119.96072388 40.23302856 119.96072388 40.23302856 119.9206543 41.4909668 C119.8165856 45.22294938 119.75163872 48.9546266 119.6875 52.6875 C119.64560547 53.98107422 119.60371094 55.27464844 119.56054688 56.60742188 C119.54443359 57.85458984 119.52832031 59.10175781 119.51171875 60.38671875 C119.48553467 61.53358154 119.45935059 62.68044434 119.43237305 63.86206055 C120.17470297 67.9657881 121.78783969 69.43389393 125 72 C127.6704053 72.50241322 127.6704053 72.50241322 130 72 C132.95370878 69.04629122 131.92933756 61.11932143 132 57 C131.87293469 52.318824 131.46023503 47.65899465 131 43 C133.12282669 41.99539469 135.24833021 40.99644398 137.375 40 C138.55835938 39.443125 139.74171875 38.88625 140.9609375 38.3125 C144 37 144 37 146 37 C145.76603516 38.63388672 145.76603516 38.63388672 145.52734375 40.30078125 C144.87364449 45.59213298 144.66625901 50.86001146 144.5625 56.1875 C144.51673828 57.15880859 144.47097656 58.13011719 144.42382812 59.13085938 C144.24448058 64.25419521 144.24448058 64.25419521 146.265625 68.79418945 C147.99786834 70.41291991 147.99786834 70.41291991 151 72 C153.80485127 71.9593157 153.80485127 71.9593157 156 71 C156.98327315 68.05018055 157.12887338 66.11020492 157.1328125 63.03515625 C157.13474609 61.58786133 157.13474609 61.58786133 157.13671875 60.11132812 C157.13285156 59.10521484 157.12898437 58.09910156 157.125 57.0625 C157.12886719 56.06025391 157.13273438 55.05800781 157.13671875 54.02539062 C157.13542969 53.05923828 157.13414062 52.09308594 157.1328125 51.09765625 C157.13112061 49.77519897 157.13112061 49.77519897 157.12939453 48.42602539 C157.00775796 46.1454544 156.63923813 44.1859151 156 42 C157.93370231 40.99267601 159.87210306 39.99436712 161.8125 39 C163.43091797 38.1646875 163.43091797 38.1646875 165.08203125 37.3125 C168 36 168 36 171 36 C170.835 37.27875 170.67 38.5575 170.5 39.875 C169.99802573 45.02023622 169.82101177 50.14639402 169.75 55.3125 C169.72873047 56.08899902 169.70746094 56.86549805 169.68554688 57.66552734 C169.65779674 62.25321993 169.94179937 65.32878167 173 69 C176.19085809 71.27623713 179.14788834 71.29805458 183 71.3125 C184.546875 71.33763672 184.546875 71.33763672 186.125 71.36328125 C189.43716879 70.94475992 190.62132843 70.3022648 193 68 C193.56560668 65.65828612 193.56560668 65.65828612 193.42578125 63.03515625 C193.41740234 62.07029297 193.40902344 61.10542969 193.40039062 60.11132812 C193.37138672 59.10521484 193.34238281 58.09910156 193.3125 57.0625 C193.29799805 55.55913086 193.29799805 55.55913086 193.28320312 54.02539062 C193.19027443 47.94132164 193.19027443 47.94132164 192 42 C194.12282669 40.99539469 196.24833021 39.99644398 198.375 39 C199.55835938 38.443125 200.74171875 37.88625 201.9609375 37.3125 C205 36 205 36 207 36 C206.99476318 36.89307861 206.98952637 37.78615723 206.98413086 38.70629883 C206.96708214 42.02173508 206.95454653 45.3371247 206.94506836 48.65258789 C206.94004158 50.08716568 206.93321921 51.52173836 206.92456055 52.95629883 C206.91242248 55.01905582 206.90675514 57.08174504 206.90234375 59.14453125 C206.89710693 60.38565674 206.89187012 61.62678223 206.88647461 62.90551758 C206.85611917 66.03708218 206.85611917 66.03708218 208 69 C212.75184381 71.20207396 216.87071023 71.33634687 222 71 C225.24849977 69.27773504 225.24849977 69.27773504 226 66 C226.09685109 63.17707563 226.13921746 60.38466638 226.125 57.5625 C226.12886719 56.79873047 226.13273438 56.03496094 226.13671875 55.24804688 C226.13542969 54.50748047 226.13414062 53.76691406 226.1328125 53.00390625 C226.13112061 51.99565796 226.13112061 51.99565796 226.12939453 50.96704102 C225.99199609 48.87832541 225.56530559 47.01169075 225 45 C227.12282669 43.99539469 229.24833021 42.99644398 231.375 42 C232.55835938 41.443125 233.74171875 40.88625 234.9609375 40.3125 C238 39 238 39 240 39 C239.97381592 39.85754883 239.94763184 40.71509766 239.9206543 41.59863281 C239.83529403 44.78916189 239.77268487 47.97910807 239.7253418 51.17041016 C239.7002407 52.54983702 239.66615127 53.92913142 239.62280273 55.30810547 C239.56197125 57.29335872 239.53642063 59.27959359 239.51171875 61.265625 C239.48553467 62.45961914 239.45935059 63.65361328 239.43237305 64.88378906 C239.7312265 68.1746887 239.7312265 68.1746887 242.35473633 70.40527344 C245.23388884 72.14100248 246.70491527 72.37658111 250 72 C251.26221942 69.47556115 251.11358817 67.73621869 251.09765625 64.9140625 C251.09282227 63.39425781 251.09282227 63.39425781 251.08789062 61.84375 C251.07951172 60.7815625 251.07113281 59.719375 251.0625 58.625 C251.05573242 57.04332031 251.05573242 57.04332031 251.04882812 55.4296875 C251.04009881 53.46434415 251.02932088 51.49900811 251.01586914 49.53369141 C251.00222866 47.35583056 251 45.17790356 251 43 C255.62 41.02 260.24 39.04 265 37 C264.95359375 39.11921875 264.9071875 41.2384375 264.859375 43.421875 C264.82815632 45.4804444 264.80388203 47.53898717 264.78027344 49.59765625 C264.76019018 51.02551121 264.73291748 52.45328425 264.69824219 53.88085938 C264.64957331 55.93640368 264.62700033 57.99085855 264.609375 60.046875 C264.5779541 61.90070801 264.5779541 61.90070801 264.54589844 63.79199219 C264.74184875 67.0666917 264.74184875 67.0666917 266.82519531 69.38378906 C269.54472193 71.40481131 271.64771933 71.77651462 275 72 C277.68944892 69.31055108 276.88565993 62.55560726 277 59 C276.85968871 53.32298023 276.43595767 47.66074271 276 42 C277.95585325 40.99515796 279.91476237 39.99626195 281.875 39 C282.96554687 38.443125 284.05609375 37.88625 285.1796875 37.3125 C288 36 288 36 290 36 C289.9685791 37.27846802 289.9685791 37.27846802 289.93652344 38.58276367 C289.86814756 41.76029433 289.81810262 44.93744871 289.78027344 48.11547852 C289.7602201 49.48800023 289.73296972 50.86043717 289.69824219 52.23266602 C289.64945448 54.21072044 289.62911124 56.18941119 289.609375 58.16796875 C289.5779541 59.95110474 289.5779541 59.95110474 289.54589844 61.77026367 C290.08977326 65.63850025 291.27280668 67.25769059 294 70 C296.18137709 70.94682999 296.18137709 70.94682999 298.5 71.0625 C299.2528125 71.15660156 300.005625 71.25070313 300.78125 71.34765625 C304.0338203 70.83801055 305.06906778 69.62844959 307 67 C307.6931565 63.81250074 307.6931565 63.81250074 307.875 60.3125 C308.81787969 52.55993363 310.85321259 47.34808711 317.0078125 42.37890625 C323.77588726 38.09731057 331.49982276 37.04743417 339.3125 38.6875 C346.10560509 41.10538486 350.95367242 44.69464412 354.08984375 51.29296875 C356.1032844 57.28144244 355.58293399 63.77756416 354 69.8125 C349.65818882 76.73226156 344.30409245 80.62039423 336.375 82.56640625 C330.3031498 83.67491838 325.80119282 82.84519878 320.11328125 80.75390625 C315.62216069 79.09980775 315.62216069 79.09980775 311 80 C308.38135839 80.1484944 305.8067523 80.2310027 303.1875 80.25 C302.48818359 80.270625 301.78886719 80.29125 301.06835938 80.3125 C296.2317811 80.34869516 293.19356389 79.30614765 289 77 C286.81701858 77.59145334 286.81701858 77.59145334 285 79 C280.42890808 81.64281545 276.1662202 81.77455703 271 81 C267.77707821 79.63773409 264.89505806 77.95801028 262 76 C261.38125 76.639375 260.7625 77.27875 260.125 77.9375 C256.46157309 81.49317906 253.54238227 81.32863518 248.61328125 81.29296875 C243.78300203 80.75145763 240.42083731 78.42083731 237 75 C236.21625 75.639375 235.4325 76.27875 234.625 76.9375 C229.89604442 80.65310795 226.15148761 80.25016205 220.3125 80.3125 C219.42626953 80.34150391 218.54003906 80.37050781 217.62695312 80.40039062 C211.52634603 80.45909373 208.02577928 79.485732 203 76 C202.566875 76.474375 202.13375 76.94875 201.6875 77.4375 C197.55591543 81.26304127 191.45922728 80.22273832 186.1875 80.25 C185.20201172 80.270625 184.21652344 80.29125 183.20117188 80.3125 C177.59456162 80.34262282 173.93860007 79.92510983 169 77 C166.81701858 77.59145334 166.81701858 77.59145334 165 79 C160.68366553 81.47299502 156.88354912 81.6917675 152 81 C149.35877276 79.92525878 147.38800009 78.62384006 145 77 C144.01 76.34 143.02 75.68 142 75 C141.7525 75.61875 141.505 76.2375 141.25 76.875 C139.73665627 79.44768434 138.73725847 79.8964222 136 81 C130.48742038 81.89063786 126.27293069 81.56936435 121.625 78.375 C121.01914062 77.88773437 120.41328125 77.40046875 119.7890625 76.8984375 C119.19867187 76.60195312 118.60828125 76.30546875 118 76 C115.89232796 76.77475691 114.21217421 77.86570074 112.32151794 79.06242371 C109.09605916 80.36506868 106.30768737 80.26225149 102.83227539 80.2746582 C102.11795853 80.27976913 101.40364166 80.28488007 100.66767883 80.29014587 C98.31091895 80.30402404 95.95445209 80.3030865 93.59765625 80.30078125 C91.95625195 80.30466914 90.31484865 80.309004 88.67344666 80.31376648 C85.2344944 80.32122484 81.79564481 80.32094019 78.35668945 80.31567383 C73.95383419 80.30987939 69.55139964 80.3268112 65.14861393 80.3500185 C61.75908458 80.36476368 58.36965637 80.36562649 54.98010063 80.36250877 C53.35702112 80.36302158 51.73393589 80.36825178 50.11088753 80.37832069 C47.83935478 80.39068342 45.5686392 80.38389512 43.29711914 80.37231445 C42.00568497 80.37294388 40.71425079 80.3735733 39.38368225 80.3742218 C35.77847603 79.97550033 33.84079284 79.22619365 31 77 C31 76.34 31 75.68 31 75 C30.236875 75.639375 29.47375 76.27875 28.6875 76.9375 C23.02397138 81.28392894 16.46779827 80.22154762 9.625 80.25 C8.39265625 80.270625 7.1603125 80.29125 5.890625 80.3125 C4.10785156 80.32023437 4.10785156 80.32023437 2.2890625 80.328125 C1.20318848 80.3374707 0.11731445 80.34681641 -1.00146484 80.35644531 C-5.55182388 79.81552981 -9.13940803 77.57573996 -12 74 C-13.04064578 70.78737908 -13.1467075 67.77161104 -13.18945312 64.40869141 C-13.20617065 63.28717682 -13.22288818 62.16566223 -13.2401123 61.01016235 C-13.25368774 59.8028244 -13.26726318 58.59548645 -13.28125 57.3515625 C-13.29965942 56.10627777 -13.31806885 54.86099304 -13.33703613 53.57797241 C-13.39579953 49.59369561 -13.4487721 45.60937874 -13.5 41.625 C-13.56746394 36.38793369 -13.64144963 31.15099321 -13.71875 25.9140625 C-13.73911316 24.10912827 -13.73911316 24.10912827 -13.7598877 22.26773071 C-13.77660522 21.1399118 -13.79332275 20.0120929 -13.81054688 18.85009766 C-13.82307495 17.86288727 -13.83560303 16.87567688 -13.84851074 15.85855103 C-14.0082115 12.8450518 -14.45053926 9.96518504 -15 7 C-12.68868934 5.83092416 -10.37604377 4.66464108 -8.0625 3.5 C-7.40314453 3.16613281 -6.74378906 2.83226562 -6.06445312 2.48828125 C-1.11328125 0 -1.11328125 0 0 0 Z M62 44 C59.44693636 48.24311985 59.22235357 52.16748293 60 57 C62.19415259 62.15897862 65.3675175 65.82344057 70 69 C75.14480905 66.57891339 78.1242366 62.77777147 81 58 C82.47434922 53.39265869 82.00091441 50.38295538 80 46 C77.00434556 42.53627455 75.30817333 41.09873006 70.6875 40.75 C66.75941531 41.01631083 65.04352057 41.56518354 62 44 Z M324 47 C320.37304505 53.12830318 320.01923577 59.30867776 321.46875 66.2421875 C323.09882512 71.3846864 325.35667079 74.23186143 330 77 C333.93366866 77.06782187 336.04284343 76.7706518 339.125 74.2890625 C342.89608682 69.68519401 343.19058788 63.22044651 342.84765625 57.42578125 C341.89209089 52.0655146 340.07585814 48.62298501 336 45 C331.01353469 43.4862516 327.95778907 43.48196527 324 47 Z " fill="#AE8C67" transform="translate(765,10)"/>
<path d="M0 0 C-0.06138513 7.57197491 -0.13861555 15.14365031 -0.23571491 22.71524906 C-0.28031906 26.23161053 -0.31959638 29.7478588 -0.34643555 33.2644043 C-0.37757643 37.313281 -0.43236099 41.36154538 -0.48828125 45.41015625 C-0.49467117 46.66458023 -0.5010611 47.91900421 -0.50764465 49.21144104 C-0.70208536 60.80957426 -0.70208536 60.80957426 -4 66 C-8.39983289 69.89345119 -11.70027655 70.50438344 -17.48828125 70.49609375 C-18.19091599 70.49754898 -18.89355072 70.49900421 -19.61747742 70.50050354 C-21.09748497 70.49885153 -22.57751096 70.48736859 -24.05737305 70.46655273 C-26.29617228 70.43771035 -28.53258066 70.44593457 -30.77148438 70.45898438 C-38.34294107 70.44600926 -44.93449176 70.00982667 -52 67 C-52.433125 67.474375 -52.86625 67.94875 -53.3125 68.4375 C-56.8969279 71.75641472 -61.43730049 71.37949454 -66.05859375 71.3671875 C-70.71351993 70.78609446 -74.19198332 68.63270289 -78 66 C-78.78375 66.639375 -79.5675 67.27875 -80.375 67.9375 C-84.88285841 71.47938875 -88.24713315 71.375 -93.8828125 71.375 C-97.90667086 70.89092681 -100.20538794 69.44816526 -103.28125 66.8984375 C-103.8484375 66.60195312 -104.415625 66.30546875 -105 66 C-107.04727078 66.67912246 -107.04727078 66.67912246 -109 68 C-114.47499057 71.37382414 -121.10118106 70.3276866 -127.3125 70.3125 C-128.61896484 70.32861328 -129.92542969 70.34472656 -131.27148438 70.36132812 C-137.96052979 70.36472876 -143.11449799 70.27894682 -149 67 C-150.485 66.505 -150.485 66.505 -152 66 C-152.79672119 66.62841797 -153.59344238 67.25683594 -154.41430664 67.90429688 C-159.16354785 71.28760225 -164.76669909 70.57070495 -170.37109375 70.53125 C-171.56678482 70.5350769 -172.76247589 70.53890381 -173.99440002 70.54284668 C-176.51849206 70.54556396 -179.04261235 70.53821584 -181.56665039 70.52148438 C-185.42072678 70.5000931 -189.27293492 70.52128489 -193.12695312 70.546875 C-195.58333743 70.54423133 -198.03972058 70.53910553 -200.49609375 70.53125 C-201.64420029 70.53934692 -202.79230682 70.54744385 -203.97520447 70.55578613 C-210.52236722 70.47943829 -214.6981044 69.95648716 -220 66 C-221.85758514 63.33476915 -222 62.29052817 -222 59 C-222.53367187 59.2165625 -223.06734375 59.433125 -223.6171875 59.65625 C-230.63846387 62.28011799 -237.6654123 63.50839284 -244.875 60.8125 C-248.42898897 58.7511864 -250.09370227 57.66009163 -252 54 C-252.91502716 49.29941691 -253.04269925 45.06419105 -250.84765625 40.71875 C-241.32640107 28.61348669 -224.26241476 26.34002608 -210 24 C-209.970271 25.47593628 -209.970271 25.47593628 -209.93994141 26.98168945 C-209.86386013 30.63282839 -209.775147 34.28357009 -209.68261719 37.93432617 C-209.64433779 39.51432451 -209.60948303 41.09440969 -209.578125 42.67456055 C-209.53245124 44.94611645 -209.47446216 47.21707509 -209.4140625 49.48828125 C-209.40251129 50.19463211 -209.39096008 50.90098297 -209.37905884 51.6287384 C-209.26928952 55.27741393 -209.07857636 56.88213546 -207 60 C-205.12445567 60.44925611 -205.12445567 60.44925611 -202.94921875 60.37231445 C-201.69782104 60.38165764 -201.69782104 60.38165764 -200.42114258 60.39118958 C-199.51904053 60.38197983 -198.61693848 60.37277008 -197.6875 60.36328125 C-196.76283936 60.36377975 -195.83817871 60.36427826 -194.88549805 60.36479187 C-192.92852634 60.36244907 -190.97155176 60.35270846 -189.01464844 60.33618164 C-186.0120969 60.31259503 -183.01043306 60.3156183 -180.0078125 60.32226562 C-178.10936968 60.31668892 -176.21093062 60.30957909 -174.3125 60.30078125 C-173.41039795 60.30169266 -172.5082959 60.30260406 -171.57885742 60.30354309 C-170.74459229 60.29401108 -169.91032715 60.28447906 -169.05078125 60.2746582 C-168.31512939 60.27005081 -167.57947754 60.26544342 -166.8215332 60.26069641 C-164.75020762 60.15007064 -164.75020762 60.15007064 -163 58 C-161.83181837 53.88532203 -161.83393506 49.8195025 -161.8125 45.5625 C-161.79832031 44.28503906 -161.78414063 43.00757813 -161.76953125 41.69140625 C-161.99393266 38.09718029 -162.69471144 35.33803042 -164 32 C-161.54379149 30.82866942 -159.08525083 29.66278278 -156.625 28.5 C-155.92632812 28.16613281 -155.22765625 27.83226563 -154.5078125 27.48828125 C-149.2265625 25 -149.2265625 25 -147 25 C-147.16113281 26.09828125 -147.32226562 27.1965625 -147.48828125 28.328125 C-148.1282219 33.47030298 -148.18385983 38.57367166 -148.1875 43.75 C-148.19974609 44.68199219 -148.21199219 45.61398438 -148.22460938 46.57421875 C-148.22654297 47.47269531 -148.22847656 48.37117188 -148.23046875 49.296875 C-148.23457764 50.10479492 -148.23868652 50.91271484 -148.24291992 51.74511719 C-147.96502015 54.32469738 -147.45180295 55.84854335 -146 58 C-141.47740173 61.08626023 -136.13397217 60.3293341 -130.875 60.3125 C-129.35326172 60.33666992 -129.35326172 60.33666992 -127.80078125 60.36132812 C-126.83269531 60.36197266 -125.86460937 60.36261719 -124.8671875 60.36328125 C-123.98144043 60.36626221 -123.09569336 60.36924316 -122.18310547 60.37231445 C-121.46268066 60.24945068 -120.74225586 60.12658691 -120 60 C-118.04279623 57.06419434 -117.69804825 56.10177164 -117.3671875 52.76953125 C-117.28339844 51.96708984 -117.19960938 51.16464844 -117.11328125 50.33789062 C-117.03464844 49.50451172 -116.95601562 48.67113281 -116.875 47.8125 C-116.74544922 46.5450293 -116.74544922 46.5450293 -116.61328125 45.25195312 C-116.4014261 43.16871077 -116.19973223 41.08443958 -116 39 C-116.66 39 -117.32 39 -118 39 C-118.33 37.68 -118.66 36.36 -119 35 C-116.54379149 33.82866942 -114.08525083 32.66278278 -111.625 31.5 C-110.92632812 31.16613281 -110.22765625 30.83226563 -109.5078125 30.48828125 C-104.2265625 28 -104.2265625 28 -102 28 C-102.15726563 29.10988281 -102.31453125 30.21976563 -102.4765625 31.36328125 C-103.08812979 36.30478848 -103.2933693 41.2117379 -103.375 46.1875 C-103.41238281 47.06341797 -103.44976562 47.93933594 -103.48828125 48.84179688 C-103.55002397 53.36616617 -103.49038589 55.3516652 -100.68359375 59.0625 C-97.69499022 61.22021084 -95.64606594 61.74562331 -92 62 C-90.22034298 58.91526116 -89.71563429 56.56067048 -89.5859375 53.015625 C-89.52792969 51.61376953 -89.52792969 51.61376953 -89.46875 50.18359375 C-89.4378125 49.21550781 -89.406875 48.24742188 -89.375 47.25 C-89.31699219 45.77466797 -89.31699219 45.77466797 -89.2578125 44.26953125 C-89.16371574 41.84653963 -89.07807672 39.42355204 -89 37 C-89.66 37 -90.32 37 -91 37 C-91 35.68 -91 34.36 -91 33 C-88.89915791 31.99303432 -86.79420511 30.9946411 -84.6875 30 C-83.51574219 29.443125 -82.34398437 28.88625 -81.13671875 28.3125 C-78 27 -78 27 -75 27 C-75.1546875 28.27488281 -75.309375 29.54976562 -75.46875 30.86328125 C-76.02871227 35.97193704 -76.36001344 41.05077108 -76.5 46.1875 C-76.55414063 47.05052734 -76.60828125 47.91355469 -76.6640625 48.80273438 C-76.74252904 52.46544015 -76.78838581 54.9712558 -74.50732422 57.94775391 C-70.85154116 61.26029355 -70.85154116 61.26029355 -66.125 62 C-63.83784358 61.19141401 -63.83784358 61.19141401 -63 59 C-62.90369484 57.30684623 -62.86924955 55.60995168 -62.8671875 53.9140625 C-62.86525391 52.39425781 -62.86525391 52.39425781 -62.86328125 50.84375 C-62.86714844 49.7815625 -62.87101563 48.719375 -62.875 47.625 C-62.87113281 46.57054687 -62.86726562 45.51609375 -62.86328125 44.4296875 C-62.86457031 43.41390625 -62.86585938 42.398125 -62.8671875 41.3515625 C-62.86887939 39.95671631 -62.86887939 39.95671631 -62.87060547 38.53369141 C-62.98940582 36.207446 -63.34260771 34.22677765 -64 32 C-61.71070947 30.82845707 -59.41881638 29.66261926 -57.125 28.5 C-56.14853516 27.99919922 -56.14853516 27.99919922 -55.15234375 27.48828125 C-50.2265625 25 -50.2265625 25 -48 25 C-48.02618408 25.91813477 -48.05236816 26.83626953 -48.0793457 27.78222656 C-48.16468373 31.1966118 -48.22730074 34.60986061 -48.2746582 38.02490234 C-48.29976737 39.50132146 -48.33386255 40.97761668 -48.37719727 42.45361328 C-48.438018 44.5787614 -48.46624209 46.70226394 -48.48828125 48.828125 C-48.51446533 50.1059082 -48.54064941 51.38369141 -48.56762695 52.70019531 C-48.2793858 56.11418814 -48.2793858 56.11418814 -45.85107422 58.41723633 C-42.57702396 60.23481364 -40.61979414 60.50266589 -36.89453125 60.49609375 C-35.74662109 60.49673828 -34.59871094 60.49738281 -33.41601562 60.49804688 C-32.22685547 60.47806641 -31.03769531 60.45808594 -29.8125 60.4375 C-28.61173828 60.44458984 -27.41097656 60.45167969 -26.17382812 60.45898438 C-21.56796699 60.46348205 -21.56796699 60.46348205 -17 60 C-14.89411792 56.84117688 -14.75064809 56.10418055 -14.75708008 52.50024414 C-14.75400345 51.59242691 -14.75092682 50.68460968 -14.74775696 49.74928284 C-14.75494247 48.77112106 -14.76212799 47.79295929 -14.76953125 46.78515625 C-14.76998947 45.77786972 -14.77044769 44.77058319 -14.7709198 43.73277283 C-14.77394163 41.60186587 -14.78182586 39.47096112 -14.79418945 37.34008789 C-14.81240861 34.07885911 -14.81469935 30.81791492 -14.81445312 27.55664062 C-14.8193699 25.48697671 -14.82519892 23.41731473 -14.83203125 21.34765625 C-14.83370049 19.88344994 -14.83370049 19.88344994 -14.83540344 18.3896637 C-14.84178329 17.47869431 -14.84816315 16.56772491 -14.85473633 15.62915039 C-14.85854813 14.82989639 -14.86235992 14.0306424 -14.86628723 13.20716858 C-14.99875617 11.02053162 -15.39697138 9.10133159 -16 7 C-13.52189684 5.83102715 -11.04259881 4.66472456 -8.5625 3.5 C-7.85544922 3.16613281 -7.14839844 2.83226562 -6.41992188 2.48828125 C-1.11328125 0 -1.11328125 0 0 0 Z M-235 41 C-238.01192634 44.01192634 -238.82277292 46.74655018 -239 51 C-237.63126711 53.8135065 -236.6314799 54.73688337 -233.75 55.9375 C-229.95286525 56.02379852 -227.36010768 54.68005384 -224 53 C-222.58225162 51.81147145 -222.58225162 51.81147145 -222.90234375 48.40234375 C-222.9090178 46.91403133 -222.92097817 45.42573568 -222.9375 43.9375 C-222.94201172 43.17888672 -222.94652344 42.42027344 -222.95117188 41.63867188 C-222.9629932 39.75908129 -222.98092922 37.87953101 -223 36 C-228.23790053 36 -230.87850079 37.9571059 -235 41 Z " fill="#AE8C67" transform="translate(527,20)"/>
<path d="M0 0 C-0.06933272 4.5537426 -0.15751321 9.10660645 -0.26245117 13.65966797 C-0.29550862 15.20546643 -0.32359903 16.75138004 -0.34643555 18.29736328 C-0.60418092 35.28662191 -0.60418092 35.28662191 -4 41 C-10.61542789 46.40942093 -18.22624977 45.51018586 -26.33984375 45.390625 C-27.8319879 45.38315516 -29.32414193 45.37746574 -30.81629944 45.37347412 C-34.72424897 45.35827597 -38.6315942 45.31904585 -42.53930664 45.2746582 C-46.53458484 45.23357879 -50.52996165 45.21543621 -54.52539062 45.1953125 C-62.3505345 45.15254466 -70.17518225 45.08436564 -78 45 C-76.68 42.03 -75.36 39.06 -74 36 C-66.74 36 -59.48 36 -52 36 C-52.08672698 32.06139888 -52.1935853 28.12514698 -52.3125 24.1875 C-52.33505859 23.06794922 -52.35761719 21.94839844 -52.38085938 20.79492188 C-52.4340332 19.18520508 -52.4340332 19.18520508 -52.48828125 17.54296875 C-52.51446533 16.55321045 -52.54064941 15.56345215 -52.56762695 14.54370117 C-52.81401552 11.98113193 -52.81401552 11.98113193 -54.30151367 10.1652832 C-57.0485619 8.28061148 -59.77902479 8.81768065 -63 9 C-63.99 10.98 -64.98 12.96 -66 15 C-70.455 13.02 -70.455 13.02 -75 11 C-73.64231796 6.11234467 -71.32965579 4.47408902 -67 2 C-63.42687005 0.80895668 -60.45446678 0.79471177 -56.6875 0.75 C-55.39199219 0.72421875 -54.09648438 0.6984375 -52.76171875 0.671875 C-47.91999192 1.09420631 -44.4795778 2.36736242 -41.1875 6 C-39.01707435 9.65545373 -38.88122268 12.60086804 -38.90234375 16.76171875 C-38.90556641 17.87998047 -38.90878906 18.99824219 -38.91210938 20.15039062 C-38.92467773 21.90125977 -38.92467773 21.90125977 -38.9375 23.6875 C-38.94201172 24.86634766 -38.94652344 26.04519531 -38.95117188 27.25976562 C-38.96296715 30.17319867 -38.98090273 33.08660567 -39 36 C-31.74 35.67 -24.48 35.34 -17 35 C-15.15530004 31.31060008 -14.74957525 30.21907283 -14.76953125 26.375 C-14.77146484 25.50359375 -14.77339844 24.6321875 -14.77539062 23.734375 C-14.78763672 22.83203125 -14.79988281 21.9296875 -14.8125 21 C-14.81314453 20.09765625 -14.81378906 19.1953125 -14.81445312 18.265625 C-14.84066579 14.32790003 -14.91103243 10.80622678 -16 7 C-13.71070947 5.82845707 -11.41881638 4.66261926 -9.125 3.5 C-8.47402344 3.16613281 -7.82304688 2.83226562 -7.15234375 2.48828125 C-2.2265625 0 -2.2265625 0 0 0 Z " fill="#AE8C67" transform="translate(620,45)"/>
<path d="M0 0 C0.66 0 1.32 0 2 0 C4.08364798 3.43189079 4.08364798 3.43189079 3.71875 5.91015625 C2.93087087 8.20100047 1.86961862 9.74128752 0.4375 11.6875 C-2.40453005 16.12404109 -3.01671063 19.83012238 -2 25 C-0.01263978 29.21320367 2.43979525 31.91556474 6.54077148 34.17749023 C11.68999094 35.89969021 17.23192855 35.50697944 22.60791016 35.41162109 C24.75861526 35.37485271 26.90760542 35.37060411 29.05859375 35.37109375 C36.398293 35.63523435 36.398293 35.63523435 43 33 C43.94352266 30.16943202 44.12866063 28.40535631 44.1328125 25.47265625 C44.13410156 24.59802734 44.13539063 23.72339844 44.13671875 22.82226562 C44.13091797 21.45618164 44.13091797 21.45618164 44.125 20.0625 C44.12886719 19.15564453 44.13273438 18.24878906 44.13671875 17.31445312 C44.13542969 16.43853516 44.13414062 15.56261719 44.1328125 14.66015625 C44.13112061 13.46338257 44.13112061 13.46338257 44.12939453 12.24243164 C44.00226169 10.03919559 43.60893656 8.11616037 43 6 C45.12282669 4.99539469 47.24833021 3.99644398 49.375 3 C50.55835938 2.443125 51.74171875 1.88625 52.9609375 1.3125 C56 0 56 0 58 0 C57.93050631 4.25063347 57.84225388 8.50036637 57.73754883 12.75024414 C57.70455407 14.1921957 57.67644523 15.63426852 57.65356445 17.07641602 C57.36078519 35.04807939 57.36078519 35.04807939 54 40 C48.98305761 44.37574842 44.88484556 44.59099385 38.54296875 44.53125 C37.18937004 44.53699036 37.18937004 44.53699036 35.8084259 44.54284668 C33.90474325 44.54556028 32.00102297 44.53823783 30.09741211 44.52148438 C27.20665784 44.50014145 24.31840997 44.52126547 21.42773438 44.546875 C19.57030708 44.54423016 17.71288133 44.53910196 15.85546875 44.53125 C15.00204391 44.53934692 14.14861908 44.54744385 13.26933289 44.55578613 C6.49192883 44.45167893 0.21580207 42.96455169 -4.88679504 38.26062012 C-9.92457248 32.74393484 -11.43998419 27.97523965 -11.2421875 20.546875 C-10.45686444 12.28831636 -5.77821811 5.77821811 0 0 Z " fill="#AE8C67" transform="translate(685,46)"/>
<path d="M0 0 C5.19767663 5.34618167 7.31110367 11.12688067 7.4375 18.5 C7.33140162 25.75327112 5.92029785 30.698994 0.9375 36.0625 C-5.72884738 42.14675467 -13.02846951 43.25 -21.8125 43.25 C-29.29616935 42.51988592 -34.2715025 39.84874744 -39.5625 34.4375 C-43.89979681 28.29299619 -44.72127962 21.59877348 -43.8125 14.25 C-41.65702274 6.89807485 -37.83638124 1.95464344 -31.25 -2 C-21.29790925 -7.06651893 -9.36459053 -5.82685633 0 0 Z M-27.8125 4.25 C-31.97263631 11.07622987 -32.89145856 18.40597129 -31.8125 26.25 C-30.5672508 30.20811354 -28.82656128 33.16600346 -26 36.1875 C-22.85307437 37.71600674 -20.31035519 38.1293843 -16.8125 38.25 C-11.3003182 36.30452407 -8.27134436 33.23566355 -5.72265625 28.01953125 C-4.62327494 24.67420358 -4.51146105 21.83104282 -4.5 18.3125 C-4.48324219 17.12785156 -4.46648438 15.94320312 -4.44921875 14.72265625 C-5.04887077 8.99049873 -7.43405911 4.9443095 -11.8125 1.25 C-18.16053085 -0.86601028 -22.8644795 -0.36815246 -27.8125 4.25 Z " fill="#AE8C67" transform="translate(826.8125,138.75)"/>
<path d="M0 0 C3.63 0 7.26 0 11 0 C11 5.94 11 11.88 11 18 C17.27 18 23.54 18 30 18 C29.505 15.525 29.505 15.525 29 13 C28.93347145 10.73004581 28.91456249 8.45831305 28.9375 6.1875 C28.94652344 5.02605469 28.95554687 3.86460937 28.96484375 2.66796875 C28.97644531 1.78753906 28.98804688 0.90710938 29 0 C32.96 0 36.92 0 41 0 C41 15.18 41 30.36 41 46 C37.04 46 33.08 46 29 46 C28.97261328 43.83340626 28.95343168 41.66670825 28.9375 39.5 C28.92589844 38.2934375 28.91429687 37.086875 28.90234375 35.84375 C29.00304386 31.88019381 29.50822272 27.93421825 30 24 C23.73 24 17.46 24 11 24 C11 31.26 11 38.52 11 46 C7.37 46 3.74 46 0 46 C0 30.82 0 15.64 0 0 Z " fill="#AE8C67" transform="translate(728,135)"/>
<path d="M0 0 C6.1565625 -0.0928125 6.1565625 -0.0928125 12.4375 -0.1875 C13.71294678 -0.21481201 14.98839355 -0.24212402 16.30249023 -0.27026367 C24.38294559 -0.32885879 30.96786103 0.45799935 37.875 4.8125 C43.2564208 10.35219788 43.97924657 16.54951887 44 24 C43.48706422 30.93578385 40.88916702 36.06618305 36 41 C30.48775014 45.20096575 25.04041397 46.13390596 18.26171875 46.09765625 C17.29967529 46.09515869 16.33763184 46.09266113 15.34643555 46.09008789 C14.13898682 46.08098389 12.93153809 46.07187988 11.6875 46.0625 C7.830625 46.041875 3.97375 46.02125 0 46 C0 30.82 0 15.64 0 0 Z M11 6 C10.89914346 8.42493373 10.86027668 10.82075661 10.8671875 13.24609375 C10.86623077 13.97240494 10.86527405 14.69871613 10.86428833 15.44703674 C10.86360656 16.9862578 10.86546063 18.52548171 10.86962891 20.06469727 C10.87496957 22.42405657 10.86968785 24.78322484 10.86328125 27.14257812 C10.86394218 28.63541709 10.86522366 30.12825593 10.8671875 31.62109375 C10.86516327 32.32946884 10.86313904 33.03784393 10.86105347 33.76768494 C10.82335627 37.50873182 10.82335627 37.50873182 12 41 C17.39560934 41.44045791 21.88584522 41.46698426 26.4921875 38.37109375 C30.40433664 34.81367316 31.7847293 31.00348525 32.34375 25.80078125 C32.56056921 17.87784587 31.77139273 13.18710164 26.5 7.125 C22.7838397 4.18970376 18.84499627 4.56684224 14.29296875 4.7265625 C12.03809959 4.75576625 12.03809959 4.75576625 11 6 Z " fill="#AE8C67" transform="translate(387,135)"/>
<path d="M0 0 C7 0 7 0 9.15234375 1.43359375 C9.74144531 2.09488281 10.33054687 2.75617188 10.9375 3.4375 C11.60523438 4.16839844 12.27296875 4.89929688 12.9609375 5.65234375 C13.63382812 6.42707031 14.30671875 7.20179688 15 8 C15.67289062 8.74378906 16.34578125 9.48757812 17.0390625 10.25390625 C19.71146341 13.22037444 22.33066775 16.23160658 24.953125 19.2421875 C25.56671875 19.94601563 26.1803125 20.64984375 26.8125 21.375 C27.35519531 22.00148437 27.89789063 22.62796875 28.45703125 23.2734375 C29.91319328 24.90286438 31.45477513 26.45477513 33 28 C33 18.76 33 9.52 33 0 C35.31 0 37.62 0 40 0 C40.15600716 15.35803849 39.6805973 30.65759915 39 46 C36.37109375 46.375 36.37109375 46.375 33 46 C30.73172352 44.03953969 28.96643117 42.26611221 27.0625 40 C26.27601074 39.10522949 26.27601074 39.10522949 25.47363281 38.19238281 C23.96748454 36.47386484 22.4827372 34.73870778 21 33 C19.75118053 31.58229256 18.50142659 30.16540663 17.25 28.75 C16.1775 27.5125 15.105 26.275 14 25 C11.36 22.03 8.72 19.06 6 16 C6 25.9 6 35.8 6 46 C3.69 46 1.38 46 -1 46 C-0.67 30.82 -0.34 15.64 0 0 Z " fill="#AE8C67" transform="translate(331,135)"/>
<path d="M0 0 C0.33 0.99 0.66 1.98 1 3 C0.67 3.66 0.34 4.32 0 5 C-0.12037961 7.03160472 -0.17739122 9.0670744 -0.20532227 11.10205078 C-0.22526749 12.38322784 -0.24521271 13.66440491 -0.26576233 14.98440552 C-0.28274669 16.38803994 -0.29962549 17.79167563 -0.31640625 19.1953125 C-0.3369754 20.62735597 -0.35797186 22.05939337 -0.37937927 23.49142456 C-0.43460403 27.26266563 -0.48401147 31.03396152 -0.53222656 34.80529785 C-0.58243867 38.65280036 -0.63812624 42.50022313 -0.69335938 46.34765625 C-0.8009459 53.8983719 -0.9018838 61.44915426 -1 69 C-5.29 69 -9.58 69 -14 69 C-14 50.19 -14 31.38 -14 12 C-15.32 12.33 -16.64 12.66 -18 13 C-18.66 11.02 -19.32 9.04 -20 7 C-17.42362412 5.63092584 -14.84031896 4.27971545 -12.25 2.9375 C-11.52039063 2.54755859 -10.79078125 2.15761719 -10.0390625 1.75585938 C-9.33007812 1.39169922 -8.62109375 1.02753906 -7.890625 0.65234375 C-7.24125977 0.31195068 -6.59189453 -0.02844238 -5.92285156 -0.37915039 C-3.52147083 -1.15450732 -2.30479545 -1.00177569 0 0 Z " fill="#AE8C67" transform="translate(657,21)"/>
<path d="M0 0 C3.96 0 7.92 0 12 0 C11.98428955 1.30819702 11.98428955 1.30819702 11.96826172 2.64282227 C11.93399488 5.90619599 11.90901171 9.169376 11.89013672 12.43286133 C11.88013443 13.84011876 11.86652822 15.2473557 11.84912109 16.65454102 C11.82461634 18.68771448 11.81345917 20.72061106 11.8046875 22.75390625 C11.78897705 24.58417358 11.78897705 24.58417358 11.77294922 26.45141602 C12.06356097 30.99339644 12.64894584 35.32469284 15.5625 38.9375 C19.35144344 40.58909073 22.93991557 40.67294217 27 40 C30.48696774 37.58594541 31.69250459 34.9579076 33 31 C33.22573914 28.58341589 33.35415225 26.15683387 33.4140625 23.73046875 C33.43342865 23.04946609 33.4527948 22.36846344 33.4727478 21.66682434 C33.53218132 19.50717407 33.578782 17.34746943 33.625 15.1875 C33.66321328 13.71677456 33.70226694 12.24607071 33.7421875 10.77539062 C33.83785183 7.18379211 33.92201575 3.59203087 34 0 C36.31 0 38.62 0 41 0 C41.32178168 35.538999 41.32178168 35.538999 36 42 C29.90162089 46.85381195 23.17529345 47.38609332 15.5390625 46.81640625 C9.98718564 45.89740957 5.37705684 43.61188095 2 39 C0.27608911 33.96869936 -0.23791013 29.61981086 -0.1953125 24.31640625 C-0.1924826 23.61603745 -0.18965271 22.91566864 -0.18673706 22.19407654 C-0.17564885 19.9833683 -0.15056703 17.77308329 -0.125 15.5625 C-0.11495546 14.05274028 -0.1058322 12.54297412 -0.09765625 11.03320312 C-0.07574714 7.35533403 -0.04129758 3.6777084 0 0 Z " fill="#AE8C67" transform="translate(528,135)"/>
<path d="M0 0 C23 0 23 0 29 3 C32.35645002 7.43917584 32.37163871 11.34667867 31.64453125 16.66015625 C30.67225699 20.18980643 28.89105987 21.84851358 26 24 C22 26 22 26 12 26 C12 32.6 12 39.2 12 46 C8.04 46 4.08 46 0 46 C0 30.82 0 15.64 0 0 Z M12 5 C12 10.61 12 16.22 12 22 C16.72979132 21.46492825 16.72979132 21.46492825 18.8125 19.5 C20.5669555 15.80640947 20.75446649 12.01642454 20 8 C18.88164756 6.12643385 18.88164756 6.12643385 17 5 C15.35 5 13.7 5 12 5 Z " fill="#AE8C67" transform="translate(888,135)"/>
<path d="M0 0 C2.31 0 4.62 0 7 0 C7.36762451 0.94206299 7.73524902 1.88412598 8.11401367 2.85473633 C9.49946489 6.40264936 10.88894121 9.94897519 12.27954102 13.49487305 C12.87696726 15.01984411 13.47335039 16.5452243 14.06860352 18.07104492 C17.22239429 26.15313111 20.4031491 34.1692088 24.14575195 42.00268555 C25 44 25 44 25 46 C20.71 46 16.42 46 12 46 C11.0234375 42.90755208 10.046875 39.81510417 9.0703125 36.72265625 C8.29975705 33.87121196 8.29975705 33.87121196 6 33 C3.7927077 32.92907158 1.58332548 32.91584975 -0.625 32.9375 C-2.40777344 32.95103516 -2.40777344 32.95103516 -4.2265625 32.96484375 C-5.14179687 32.97644531 -6.05703125 32.98804688 -7 33 C-7.12117187 33.60328125 -7.24234375 34.2065625 -7.3671875 34.828125 C-7.53476562 35.62734375 -7.70234375 36.4265625 -7.875 37.25 C-8.03742187 38.03890625 -8.19984375 38.8278125 -8.3671875 39.640625 C-8.99150075 41.96831144 -9.84838542 43.89031952 -11 46 C-13.31 46 -15.62 46 -18 46 C-16.04324006 39.90282989 -13.85350998 33.95161186 -11.42578125 28.02734375 C-11.09708542 27.21882462 -10.76838959 26.41030548 -10.42973328 25.57728577 C-9.39329827 23.02960474 -8.3529733 20.48353407 -7.3125 17.9375 C-6.60325623 16.19606916 -5.89426952 14.45453361 -5.18554688 12.71289062 C-3.45999682 8.47404557 -1.73095956 4.23663876 0 0 Z M1 15 C-2.33247818 21.1999082 -2.33247818 21.1999082 -4 28 C-0.7 28 2.6 28 6 28 C5.54803755 26.39402675 5.08817673 24.79027492 4.625 23.1875 C4.36976563 22.29417969 4.11453125 21.40085938 3.8515625 20.48046875 C3.04733339 17.79532104 3.04733339 17.79532104 1 15 Z " fill="#AE8C67" transform="translate(665,135)"/>
<path d="M0 0 C1.98 0 3.96 0 6 0 C10.12739488 9.84892699 14.15467617 19.73689513 18.15820312 29.63671875 C18.62548828 30.78785156 19.09277344 31.93898437 19.57421875 33.125 C19.99276123 34.15882813 20.41130371 35.19265625 20.8425293 36.2578125 C21.92803568 38.93990713 21.92803568 38.93990713 23.15161133 41.1796875 C24 43 24 43 24 46 C20.04 46 16.08 46 12 46 C8 36.375 8 36.375 8 33 C5.87506859 32.97306425 3.75004088 32.95363372 1.625 32.9375 C0.44164062 32.92589844 -0.74171875 32.91429687 -1.9609375 32.90234375 C-4.91921521 32.78533407 -4.91921521 32.78533407 -7 34 C-7.78344256 35.99291777 -8.48016365 38.02051823 -9.125 40.0625 C-9.47820312 41.16722656 -9.83140625 42.27195313 -10.1953125 43.41015625 C-10.46085937 44.26480469 -10.72640625 45.11945313 -11 46 C-13.64 46 -16.28 46 -19 46 C-15.56481719 36.975859 -12.01800586 28.0048784 -8.375 19.0625 C-7.89804687 17.88365234 -7.42109375 16.70480469 -6.9296875 15.49023438 C-6.465625 14.35005859 -6.0015625 13.20988281 -5.5234375 12.03515625 C-5.11013184 11.0181665 -4.69682617 10.00117676 -4.27099609 8.95336914 C-2.95911296 5.90499222 -1.51164762 2.95373416 0 0 Z M0 14 C-1.65 18.62 -3.3 23.24 -5 28 C-1.7 28 1.6 28 5 28 C4.36843005 22.94744036 2.86540627 18.70406799 1 14 C0.67 14 0.34 14 0 14 Z " fill="#AE8C67" transform="translate(294,135)"/>
<path d="M0 0 C2.31 0 4.62 0 7 0 C7.37286133 0.98282959 7.74572266 1.96565918 8.12988281 2.97827148 C9.52886014 6.66381522 10.93118779 10.34807688 12.33447266 14.03198242 C12.93856151 15.61920576 13.54177065 17.20676423 14.14404297 18.79467773 C18.04915208 29.19839498 18.04915208 29.19839498 22.421875 39.41015625 C24 43 24 43 24 46 C20.04 46 16.08 46 12 46 C8 35.25 8 35.25 8 33 C3.05 33 -1.9 33 -7 33 C-7.474375 34.77375 -7.94875 36.5475 -8.4375 38.375 C-9.875 43.75 -9.875 43.75 -11 46 C-13.31 46 -15.62 46 -18 46 C-17.28980982 41.03054423 -15.35200919 36.65098096 -13.4375 32.05078125 C-12.91047485 30.77003975 -12.91047485 30.77003975 -12.37280273 29.46342468 C-11.25274365 26.74469144 -10.12636809 24.0286246 -9 21.3125 C-8.24179095 19.47347074 -7.48397403 17.63427974 -6.7265625 15.79492188 C-5.34212441 12.43826288 -3.95723923 9.08179814 -2.56640625 5.7277832 C-2.28740479 5.05447464 -2.00840332 4.38116608 -1.72094727 3.68745422 C-1.18802943 2.44010301 -0.60661132 1.21322264 0 0 Z M0 15 C-0.67305018 16.60149886 -1.33822227 18.20631029 -2 19.8125 C-2.37125 20.70582031 -2.7425 21.59914062 -3.125 22.51953125 C-4.16633237 25.0331433 -4.16633237 25.0331433 -4 28 C-0.7 28 2.6 28 6 28 C5.38416344 26.01796291 4.75706166 24.0394228 4.125 22.0625 C3.77695312 20.96035156 3.42890625 19.85820312 3.0703125 18.72265625 C2.29975705 15.87121196 2.29975705 15.87121196 0 15 Z " fill="#AE8C67" transform="translate(1016,135)"/>
<path d="M0 0 C2.31 0 4.62 0 7 0 C7.30180176 0.80518066 7.60360352 1.61036133 7.91455078 2.43994141 C9.06382313 5.50130851 10.21604641 8.56153386 11.37011719 11.62109375 C11.86376886 12.93153777 12.35632746 14.24239422 12.84765625 15.55371094 C15.96728377 23.87697944 19.26242711 32.07053988 22.89404297 40.18505859 C24 43 24 43 24 46 C20.04 46 16.08 46 12 46 C8 35.25 8 35.25 8 33 C3.05 33 -1.9 33 -7 33 C-7.474375 34.77375 -7.94875 36.5475 -8.4375 38.375 C-9.875 43.75 -9.875 43.75 -11 46 C-13.31 46 -15.62 46 -18 46 C-17.28980982 41.03054423 -15.35200919 36.65098096 -13.4375 32.05078125 C-12.91047485 30.77003975 -12.91047485 30.77003975 -12.37280273 29.46342468 C-11.25274365 26.74469144 -10.12636809 24.0286246 -9 21.3125 C-8.24179095 19.47347074 -7.48397403 17.63427974 -6.7265625 15.79492188 C-5.34212441 12.43826288 -3.95723923 9.08179814 -2.56640625 5.7277832 C-2.28740479 5.05447464 -2.00840332 4.38116608 -1.72094727 3.68745422 C-1.18802943 2.44010301 -0.60661132 1.21322264 0 0 Z M0 15 C-0.67305018 16.60149886 -1.33822227 18.20631029 -2 19.8125 C-2.37125 20.70582031 -2.7425 21.59914062 -3.125 22.51953125 C-4.16633237 25.0331433 -4.16633237 25.0331433 -4 28 C-0.7 28 2.6 28 6 28 C5.38416344 26.01796291 4.75706166 24.0394228 4.125 22.0625 C3.77695312 20.96035156 3.42890625 19.85820312 3.0703125 18.72265625 C2.29975705 15.87121196 2.29975705 15.87121196 0 15 Z " fill="#AE8C67" transform="translate(455,135)"/>
<path d="M0 0 C0.804375 0.495 1.60875 0.99 2.4375 1.5 C2.1075 3.81 1.7775 6.12 1.4375 8.5 C0.4475 8.83 -0.5425 9.16 -1.5625 9.5 C-2.26375 8.654375 -2.965 7.80875 -3.6875 6.9375 C-6.34822604 4.12530934 -6.34822604 4.12530934 -9.8125 4.625 C-12.44700618 5.23136521 -12.44700618 5.23136521 -13.5625 6.5 C-14.06385199 8.87221956 -14.06385199 8.87221956 -13.5625 11.5 C-10.7620311 14.3908066 -7.51843527 16.07377439 -4 17.9375 C-0.2292782 20.0302506 2.4511822 21.52736441 4.4375 25.5 C5.21157988 30.82078068 5.09000026 35.09461481 2.8125 40 C-1.80757128 44.86323293 -6.5254121 46.00427489 -13.015625 46.515625 C-16.80448249 46.49238048 -19.95697993 45.63507113 -23.5625 44.5 C-23.2325 41.2 -22.9025 37.9 -22.5625 34.5 C-21.5725 34.5 -20.5825 34.5 -19.5625 34.5 C-18.9025 36.15 -18.2425 37.8 -17.5625 39.5 C-15.6753125 39.7784375 -15.6753125 39.7784375 -13.75 40.0625 C-13.04230469 40.16691406 -12.33460938 40.27132812 -11.60546875 40.37890625 C-9.3599658 40.63904799 -9.3599658 40.63904799 -6.5625 39.5 C-5.6261079 36.20054409 -5.6261079 36.20054409 -5.5625 32.5 C-7.68913608 30.08981244 -9.92813952 28.82901112 -12.76171875 27.359375 C-17.74655829 24.75572327 -21.1888749 22.86645676 -23.5625 17.5 C-24.24430631 13.09204292 -23.84854904 9.44753746 -22.5625 5.1875 C-17.09295198 -2.16220515 -8.15290698 -3.43280294 0 0 Z " fill="#AE8C67" transform="translate(869.5625,135.5)"/>
<path d="M0 0 C0.78375 0.495 1.5675 0.99 2.375 1.5 C1.5 7.25 1.5 7.25 0.375 9.5 C-2.625 8.5 -2.625 8.5 -4.5 6.4375 C-6.47271875 4.28874835 -6.47271875 4.28874835 -9.1875 4.0625 C-11.64039132 4.3445099 -11.64039132 4.3445099 -13.5 5.6875 C-14.83364812 7.47966787 -14.83364812 7.47966787 -14.62109375 9.8671875 C-13.17208627 13.69711315 -10.30914745 14.73310401 -6.8125 16.4375 C-1.57407057 19.00577809 1.57046776 21.11307668 4.375 26.5 C5.24691346 30.68106535 4.84231107 34.39321063 3.1875 38.3125 C-0.78010653 43.10099064 -4.46515533 45.40712433 -10.625 46.5 C-20.30808351 46.37794433 -20.30808351 46.37794433 -24.625 43.5 C-23.965 40.53 -23.305 37.56 -22.625 34.5 C-21.635 34.5 -20.645 34.5 -19.625 34.5 C-19.2125 35.304375 -18.8 36.10875 -18.375 36.9375 C-16.78509147 39.84826588 -16.78509147 39.84826588 -13.1875 40.5 C-9.71666898 40.74881579 -9.71666898 40.74881579 -7.1875 39.375 C-5.47429967 37.57417018 -5.47429967 37.57417018 -4.9375 35.125 C-6.009448 31.03210765 -9.16740007 29.53823498 -12.625 27.5 C-13.85248044 26.8302337 -15.08157756 26.16341924 -16.3125 25.5 C-19.87692971 23.34789149 -21.66916865 22.17696294 -23.625 18.5 C-24.41308571 13.18651494 -24.27396142 8.89776306 -22 4 C-15.88513523 -2.43669976 -8.04410307 -3.32859437 0 0 Z " fill="#AE8C67" transform="translate(606.625,135.5)"/>
<path d="M0 0 C0.78375 0.495 1.5675 0.99 2.375 1.5 C1.715 4.14 1.055 6.78 0.375 9.5 C-2.625 8.5 -2.625 8.5 -4.375 6.375 C-6.61914464 4.06652596 -6.61914464 4.06652596 -10.375 4.75 C-11.98375 5.12125 -11.98375 5.12125 -13.625 5.5 C-14.48474801 7.79294488 -14.48474801 7.79294488 -14.625 10.5 C-11.89270102 13.81779162 -8.95312089 15.51352363 -5.125 17.375 C-0.57694531 19.80993983 2.34111581 21.56056698 4.375 26.5 C5.01623653 30.80544528 4.8878066 34.28545806 3.1875 38.3125 C-0.78010653 43.10099064 -4.46515533 45.40712433 -10.625 46.5 C-20.30808351 46.37794433 -20.30808351 46.37794433 -24.625 43.5 C-23.965 40.53 -23.305 37.56 -22.625 34.5 C-21.635 34.5 -20.645 34.5 -19.625 34.5 C-19.2125 35.304375 -18.8 36.10875 -18.375 36.9375 C-16.78509147 39.84826588 -16.78509147 39.84826588 -13.1875 40.5 C-9.66480136 40.80161611 -9.66480136 40.80161611 -7.1875 39.0625 C-6.671875 38.546875 -6.15625 38.03125 -5.625 37.5 C-5.6561941 34.63265479 -5.6561941 34.63265479 -6.625 31.5 C-9.1091012 29.48906094 -11.61859962 28.03139675 -14.4375 26.54296875 C-18.51225343 24.3387379 -21.42660591 22.63298089 -23.625 18.5 C-24.41308571 13.18651494 -24.27396142 8.89776306 -22 4 C-15.88513523 -2.43669976 -8.04410307 -3.32859437 0 0 Z " fill="#AE8C67" transform="translate(1115.625,135.5)"/>
<path d="M0 0 C11.22 0 22.44 0 34 0 C34 2.31 34 4.62 34 7 C28.555 6.505 28.555 6.505 23 6 C23 19.2 23 32.4 23 46 C19.04 46 15.08 46 11 46 C11.33 32.8 11.66 19.6 12 6 C6.06 6.495 6.06 6.495 0 7 C0 4.69 0 2.38 0 0 Z " fill="#AE8C67" transform="translate(959,135)"/>
<path d="M0 0 C3.96 0 7.92 0 12 0 C11.67 13.2 11.34 26.4 11 40 C15.95 39.67 20.9 39.34 26 39 C26 41.31 26 43.62 26 46 C17.42 46 8.84 46 0 46 C0 30.82 0 15.64 0 0 Z " fill="#AE8C67" transform="translate(490,135)"/>
<path d="M0 0 C3.63 0 7.26 0 11 0 C11 13.2 11 26.4 11 40 C15.95 39.67 20.9 39.34 26 39 C26 41.31 26 43.62 26 46 C17.42 46 8.84 46 0 46 C0 30.82 0 15.64 0 0 Z " fill="#AE8C67" transform="translate(1054,135)"/>
<path d="M0 0 C3.96 0 7.92 0 12 0 C12 15.18 12 30.36 12 46 C8.04 46 4.08 46 0 46 C0 30.82 0 15.64 0 0 Z " fill="#AE8C67" transform="translate(933,135)"/>
<path d="M0 0 C3.63 0 7.26 0 11 0 C11 15.18 11 30.36 11 46 C7.37 46 3.74 46 0 46 C0 30.82 0 15.64 0 0 Z " fill="#AE8C67" transform="translate(625,135)"/>
<path d="M0 0 C2.5 2.3125 2.5 2.3125 4 5 C4 5.99 4 6.98 4 8 C2.02 8.33 0.04 8.66 -2 9 C-2.33 8.01 -2.66 7.02 -3 6 C-3.99 6.33 -4.98 6.66 -6 7 C-6 9.64 -6 12.28 -6 15 C-5.37351562 14.71125 -4.74703125 14.4225 -4.1015625 14.125 C-3.28429687 13.75375 -2.46703125 13.3825 -1.625 13 C-0.81289063 12.62875 -0.00078125 12.2575 0.8359375 11.875 C3 11 3 11 5 11 C5 12.98 5 14.96 5 17 C2.06742967 18.50978518 -0.87180894 20.00610203 -3.8125 21.5 C-4.64587891 21.92925781 -5.47925781 22.35851562 -6.33789062 22.80078125 C-7.14033203 23.20683594 -7.94277344 23.61289062 -8.76953125 24.03125 C-9.50792236 24.40830078 -10.24631348 24.78535156 -11.00708008 25.17382812 C-13 26 -13 26 -16 26 C-16.33 24.35 -16.66 22.7 -17 21 C-15.68 20.01 -14.36 19.02 -13 18 C-13.350625 16.989375 -13.70125 15.97875 -14.0625 14.9375 C-15.15964092 10.98138601 -15.20623471 7.99565249 -14 4 C-9.51664292 -0.26465673 -5.90054123 -0.85653018 0 0 Z " fill="#AE8C67" transform="translate(652,0)"/>
<path d="M0 0 C2.4375 1.625 2.4375 1.625 4 4 C4.60605429 7.63632575 4.47161336 9.28314769 2.4375 12.375 C-0.93510779 14.62340519 -3.02512383 14.56783945 -7 14 C-9.4375 12.375 -9.4375 12.375 -11 10 C-11.60605429 6.36367425 -11.47161336 4.71685231 -9.4375 1.625 C-6.06489221 -0.62340519 -3.97487617 -0.56783945 0 0 Z " fill="#AE8C67" transform="translate(604,20)"/>
<path d="M0 0 C2.4375 1.625 2.4375 1.625 4 4 C4.60605429 7.63632575 4.47161336 9.28314769 2.4375 12.375 C-0.95870843 14.63913895 -3.00099302 14.64269755 -7 14 C-9.5 11.875 -9.5 11.875 -11 9 C-10.936318 5.81590023 -10.51040601 3.85067668 -8.875 1.125 C-5.83167192 -0.70099685 -3.45750445 -0.42460581 0 0 Z " fill="#AE8C67" transform="translate(387,94)"/>
<path d="M0 0 C2.9375 2.125 2.9375 2.125 5 5 C5 8.23421175 4.53173428 10.11377619 2.875 12.875 C-0.16832808 14.70099685 -2.54249555 14.42460581 -6 14 C-8.4375 12.375 -8.4375 12.375 -10 10 C-10.61195145 6.3282913 -10.48706506 4.71186432 -8.375 1.625 C-5.24988831 -0.51323431 -3.71837535 -0.6829669 0 0 Z " fill="#AE8C67" transform="translate(311,20)"/>
<path d="M0 0 C2.375 1 2.375 1 4 3 C4.65964122 6.55761554 4.63041883 9.73916234 3 13 C-0.26205554 14.63102777 -3.43555389 14.51981506 -7 14 C-9 13 -9 13 -10 11 C-10.45429103 8.23975072 -10.51084843 5.7551376 -10 3 C-7.19663749 -0.45029232 -4.26211439 -0.5327643 0 0 Z " fill="#AE8C67" transform="translate(294,20)"/>
<path d="M0 0 C2.375 1 2.375 1 4 3 C4.56659452 5.77515685 4.5609375 8.22422681 4 11 C2.4375 13 2.4375 13 0 14 C-3.39844421 14.35773097 -5.85873258 14.58904125 -8.9375 13 C-10.65930485 9.75895557 -10.66300779 6.57577233 -10 3 C-7.19663749 -0.45029232 -4.26211439 -0.5327643 0 0 Z " fill="#AE8C67" transform="translate(370,94)"/>
<path d="M0 0 C2 1.5625 2 1.5625 3 4 C2.67272727 10.32727273 2.67272727 10.32727273 0 13 C-6.07894737 13.55263158 -6.07894737 13.55263158 -8.875 11.875 C-10.49895728 9.16840453 -10.93558662 7.15625563 -11 4 C-8.15540449 -0.50394289 -5.07270508 -0.73784801 0 0 Z " fill="#AE8C67" transform="translate(899,25)"/>
<path d="M0 0 C2 2 2 2 2.3125 5.9375 C2.23081662 8.43791894 2.12109418 9.77205801 0.9375 12 C-2.13215135 13.58433618 -4.61681143 13.36248449 -8 13 C-9.9375 11.9375 -9.9375 11.9375 -11 10 C-11.36248449 6.61681143 -11.58433618 4.13215135 -10 1.0625 C-6.64558048 -0.71953537 -3.76220155 -0.29858742 0 0 Z " fill="#AE8C67" transform="translate(972,25)"/>
<path d="M0 0 C3.4375 0.5 3.4375 0.5 5.375 1.5625 C7.0515629 4.61976176 6.80278977 7.0906288 6.4375 10.5 C5.375 12.4375 5.375 12.4375 3.4375 13.5 C-2.54963826 14.1414791 -2.54963826 14.1414791 -5.4375 12.3125 C-6.93610729 9.89807715 -7.49432826 8.36321294 -7.5625 5.5 C-5.47405741 1.58417014 -4.44351297 0.62365094 0 0 Z " fill="#AE8C67" transform="translate(706.5625,24.5)"/>
<path d="M0 0 C0.99 0.66 1.98 1.32 3 2 C3.64608076 8.78384798 3.64608076 8.78384798 1.9375 12 C-1.13215135 13.58433618 -3.61681143 13.36248449 -7 13 C-8.9375 11.9375 -8.9375 11.9375 -10 10 C-10.36528977 6.5906288 -10.6140629 4.11976176 -8.9375 1.0625 C-5.91362524 -0.5957539 -3.37613017 -0.30144019 0 0 Z " fill="#AE8C67" transform="translate(839,25)"/>
<path d="M0 0 C1.9375 1.0625 1.9375 1.0625 3 3 C3.36528977 6.4093712 3.6140629 8.88023824 1.9375 11.9375 C-1.11976176 13.6140629 -3.5906288 13.36528977 -7 13 C-8.9375 11.9375 -8.9375 11.9375 -10 10 C-10.36528977 6.5906288 -10.6140629 4.11976176 -8.9375 1.0625 C-5.88023824 -0.6140629 -3.4093712 -0.36528977 0 0 Z " fill="#AE8C67" transform="translate(914,25)"/>
<path d="M0 0 C1.9375 1.0625 1.9375 1.0625 3 3 C3.36528977 6.4093712 3.6140629 8.88023824 1.9375 11.9375 C-1.11976176 13.6140629 -3.5906288 13.36528977 -7 13 C-8.9375 11.9375 -8.9375 11.9375 -10 10 C-10.36528977 6.5906288 -10.6140629 4.11976176 -8.9375 1.0625 C-5.88023824 -0.6140629 -3.4093712 -0.36528977 0 0 Z " fill="#AE8C67" transform="translate(956,25)"/>
<path d="M0 0 C1.9375 1.0625 1.9375 1.0625 3 3 C3.36528977 6.4093712 3.6140629 8.88023824 1.9375 11.9375 C-1.11976176 13.6140629 -3.5906288 13.36528977 -7 13 C-8.9375 11.9375 -8.9375 11.9375 -10 10 C-10.36528977 6.5906288 -10.6140629 4.11976176 -8.9375 1.0625 C-5.88023824 -0.6140629 -3.4093712 -0.36528977 0 0 Z " fill="#AE8C67" transform="translate(725,25)"/>
<path d="M0 0 C2 1.5625 2 1.5625 3 4 C2.67272727 10.32727273 2.67272727 10.32727273 0 13 C-6.00458716 13.54587156 -6.00458716 13.54587156 -8.9375 11.9375 C-10.6140629 8.88023824 -10.36528977 6.4093712 -10 3 C-7.7810369 -1.04634448 -4.19567567 -0.52445946 0 0 Z " fill="#AE8C67" transform="translate(802,98)"/>
<path d="M0 0 C1.9375 1.125 1.9375 1.125 3 3 C3.42030443 6.29238472 3.295454 8.33957342 1.9375 11.375 C0 13 0 13 -3.5 13.4375 C-7 13 -7 13 -8.9375 11.9375 C-10.6140629 8.88023824 -10.36528977 6.4093712 -10 3 C-7.77766882 -1.05248626 -4.20052866 -0.45005664 0 0 Z " fill="#AE8C67" transform="translate(787,98)"/>
<path d="M0 0 C1.99487345 2.32735236 2.03473845 3.52524123 1.8125 6.5625 C0.89602971 9.31191087 0.49831143 10.50101314 -2 12 C-8.33333333 11.66666667 -8.33333333 11.66666667 -11 9 C-11.6700702 2.85768985 -11.6700702 2.85768985 -9.4375 0 C-5.91805945 -1.44387305 -3.62200262 -1.00611184 0 0 Z " fill="#AE8C67" transform="translate(907,9)"/>
</svg>
