<svg xmlns="http://www.w3.org/2000/svg" xmlns:xlink="http://www.w3.org/1999/xlink" width="1080" zoomAndPan="magnify" viewBox="0 0 810 809.999993" height="1080" preserveAspectRatio="xMidYMid meet" version="1.0"><defs><clipPath id="348adaa39b"><path d="M 19.445312 136 L 780 136 L 780 677 L 19.445312 677 Z M 19.445312 136 " clip-rule="nonzero"/></clipPath></defs><g clip-path="url(#348adaa39b)"><path fill="#ae8c67" d="M 206.199219 138.734375 C 208.515625 139.191406 210.832031 139.648438 213.21875 140.121094 C 273.871094 153.035156 338.464844 175.699219 388.28125 213.535156 C 395.867188 219.003906 395.867188 219.003906 403.542969 216.714844 C 406.128906 215.183594 408.71875 213.652344 411.382812 212.074219 C 413.054688 211.089844 414.722656 210.105469 416.441406 209.089844 C 420.316406 206.773438 424.175781 204.421875 428.019531 202.042969 C 471.664062 175.113281 517.980469 155.894531 567.921875 144.191406 C 573.910156 142.757812 579.851562 141.128906 585.789062 139.488281 C 600.988281 136.042969 611.289062 133.980469 625.402344 141.410156 C 634.160156 148.363281 641.808594 155.742188 649.542969 163.808594 C 653.070312 167.078125 653.070312 167.078125 656.667969 170.410156 C 674.777344 187.433594 689.769531 206.695312 703.808594 227.15625 C 703.808594 228.152344 703.808594 229.148438 703.808594 230.171875 C 701.976562 230.21875 700.144531 230.261719 698.257812 230.304688 C 630.660156 232.109375 570.730469 241.476562 508.417969 268.257812 C 506.382812 269.128906 504.34375 270 502.242188 270.898438 C 492.324219 275.324219 485.070312 279.558594 477.707031 287.484375 C 480.109375 290.253906 482.511719 293.023438 484.984375 295.875 C 531.972656 350.238281 531.972656 350.238281 531.972656 359.882812 C 534.859375 358.714844 537.746094 357.546875 540.722656 356.347656 C 586.289062 338.304688 626.367188 328.691406 675.734375 328.398438 C 679.347656 328.367188 682.964844 328.335938 686.6875 328.304688 C 712.605469 328.554688 735.976562 332.476562 761.085938 338.765625 C 763.5625 346.300781 766.007812 353.839844 768.4375 361.390625 C 769.476562 364.539062 769.476562 364.539062 770.539062 367.753906 C 775.167969 382.253906 777.691406 396.003906 779.175781 411.160156 C 767.773438 409.132812 757.175781 405.972656 746.203125 402.300781 C 676.753906 380.683594 606.46875 388.957031 542.144531 422.097656 C 476.101562 457.816406 432.035156 518.945312 408.371094 589.132812 C 407.03125 593.078125 407.03125 593.078125 405.660156 597.101562 C 404.621094 604.671875 404.621094 604.671875 410.230469 611.308594 C 413.601562 614.703125 413.601562 614.703125 417.039062 618.167969 C 429.222656 630.617188 429.222656 630.617188 432.488281 640.414062 C 431.070312 641.765625 429.652344 643.113281 428.1875 644.503906 C 417.863281 654.535156 409.007812 663.664062 402.339844 676.613281 C 391.101562 672.863281 388.117188 668.136719 380.859375 658.890625 C 378.738281 656.222656 376.617188 653.554688 374.429688 650.808594 C 369.179688 643.429688 369.179688 643.429688 366.164062 634.382812 C 370.273438 628.539062 370.273438 628.539062 376.152344 622.316406 C 382.621094 615.382812 388.011719 609.132812 393.296875 601.199219 C 391.394531 593.515625 389.226562 586.828125 386.324219 579.519531 C 385.496094 577.390625 384.664062 575.257812 383.808594 573.066406 C 353.773438 498.757812 304.136719 442.800781 230.210938 410.523438 C 167.171875 384.390625 98.0625 382.703125 34.855469 408.839844 C 28.519531 411.160156 28.519531 411.160156 19.476562 411.160156 C 21.105469 387.542969 24.285156 363.308594 34.550781 341.78125 C 43.238281 335.320312 51.070312 333.882812 61.683594 332.734375 C 64.4375 332.234375 67.195312 331.734375 70.035156 331.222656 C 136.273438 320.988281 200.839844 331.015625 260.652344 359.882812 C 262.292969 357.871094 263.9375 355.859375 265.632812 353.789062 C 267.90625 351.007812 270.179688 348.230469 272.519531 345.363281 C 274.976562 342.359375 277.433594 339.351562 279.964844 336.257812 C 285.101562 329.972656 290.253906 323.695312 295.414062 317.425781 C 297.808594 314.515625 300.203125 311.601562 302.667969 308.601562 C 304.871094 305.925781 307.074219 303.25 309.34375 300.496094 C 315.222656 293.339844 315.222656 293.339844 320.945312 284.46875 C 246.414062 246.507812 178.082031 232.796875 94.84375 230.171875 C 106.320312 206.496094 124.910156 187.460938 143.265625 168.902344 C 144.71875 167.417969 146.171875 165.9375 147.667969 164.410156 C 152.0625 160.054688 156.554688 155.871094 161.167969 151.746094 C 162.808594 150.261719 164.449219 148.777344 166.140625 147.25 C 179.480469 136.351562 189.351562 135.046875 206.199219 138.734375 Z M 382.746094 354.414062 C 365.414062 372.035156 350.652344 391.285156 336.019531 411.160156 C 345.125 422.054688 354.179688 432.488281 364.46875 442.269531 C 377.074219 454.601562 386.613281 468.894531 396.3125 483.558594 C 407.636719 472.554688 417.898438 461.027344 427.964844 448.867188 C 438.03125 436.707031 448.292969 425.183594 459.621094 414.179688 C 454.976562 398.515625 445.011719 388.207031 434.371094 376.285156 C 432.628906 374.296875 430.890625 372.304688 429.097656 370.257812 C 416.265625 355.484375 416.265625 355.484375 402.339844 341.78125 C 392.816406 341.78125 389.359375 347.824219 382.746094 354.414062 Z M 382.746094 354.414062 " fill-opacity="1" fill-rule="nonzero"/></g></svg>